<svg width="29" height="25" viewBox="0 0 29 25" fill="none" xmlns="http://www.w3.org/2000/svg">
<path d="M14.2837 0C15.0761 0 15.8071 0.418527 16.2089 1.10491L28.2624 21.6406C28.6698 22.3326 28.6698 23.1864 28.2736 23.8783C27.8774 24.5703 27.1352 25 26.3372 25H2.23008C1.43209 25 0.689905 24.5703 0.293699 23.8783C-0.102506 23.1864 -0.0969258 22.327 0.30486 21.6406L12.3584 1.10491C12.7602 0.418527 13.4912 0 14.2837 0ZM14.2837 7.14286C13.5415 7.14286 12.9444 7.73996 12.9444 8.48214V14.7321C12.9444 15.4743 13.5415 16.0714 14.2837 16.0714C15.0258 16.0714 15.6229 15.4743 15.6229 14.7321V8.48214C15.6229 7.73996 15.0258 7.14286 14.2837 7.14286ZM16.0694 19.6429C16.0694 19.1693 15.8812 18.7151 15.5463 18.3802C15.2115 18.0453 14.7573 17.8571 14.2837 17.8571C13.8101 17.8571 13.3559 18.0453 13.021 18.3802C12.6861 18.7151 12.4979 19.1693 12.4979 19.6429C12.4979 20.1165 12.6861 20.5707 13.021 20.9055C13.3559 21.2404 13.8101 21.4286 14.2837 21.4286C14.7573 21.4286 15.2115 21.2404 15.5463 20.9055C15.8812 20.5707 16.0694 20.1165 16.0694 19.6429Z" fill="#FF7700"/>
</svg>
